<svg width="102" height="102" viewBox="0 0 102 102" fill="none" xmlns="http://www.w3.org/2000/svg">
    <path d="M95.7805 0H6.21951C2.78457 0 0 2.78457 0 6.21951V95.7805C0 99.2154 2.78457 102 6.21951 102H95.7805C99.2154 102 102 99.2154 102 95.7805V6.21951C102 2.78457 99.2154 0 95.7805 0Z" fill="#FEDA03"/>
    <path d="M14.9268 14.9268H17.4146V17.4146H14.9268V14.9268ZM17.4146 14.9268H19.9024V17.4146H17.4146V14.9268ZM19.9024 14.9268H22.3902V17.4146H19.9024V14.9268ZM22.3902 14.9268H24.8781V17.4146H22.3902V14.9268ZM24.8781 14.9268H27.3659V17.4146H24.8781V14.9268ZM27.3659 14.9268H29.8537V17.4146H27.3659V14.9268ZM29.8537 14.9268H32.3415V17.4146H29.8537V14.9268ZM37.3171 14.9268H39.8049V17.4146H37.3171V14.9268ZM52.2439 14.9268H54.7317V17.4146H52.2439V14.9268ZM54.7317 14.9268H57.2195V17.4146H54.7317V14.9268ZM59.7073 14.9268H62.1951V17.4146H59.7073V14.9268ZM62.1951 14.9268H64.6829V17.4146H62.1951V14.9268ZM64.6829 14.9268H67.1707V17.4146H64.6829V14.9268ZM69.6585 14.9268H72.1464V17.4146H69.6585V14.9268ZM72.1464 14.9268H74.6342V17.4146H72.1464V14.9268ZM74.6342 14.9268H77.122V17.4146H74.6342V14.9268ZM77.122 14.9268H79.6098V17.4146H77.122V14.9268ZM79.6098 14.9268H82.0976V17.4146H79.6098V14.9268ZM82.0976 14.9268H84.5854V17.4146H82.0976V14.9268ZM84.5854 14.9268H87.0732V17.4146H84.5854V14.9268ZM14.9268 17.4146H17.4146V19.9024H14.9268V17.4146ZM29.8537 17.4146H32.3415V19.9024H29.8537V17.4146ZM34.8293 17.4146H37.3171V19.9024H34.8293V17.4146ZM37.3171 17.4146H39.8049V19.9024H37.3171V17.4146ZM42.2927 17.4146H44.7805V19.9024H42.2927V17.4146ZM44.7805 17.4146H47.2683V19.9024H44.7805V17.4146ZM64.6829 17.4146H67.1707V19.9024H64.6829V17.4146ZM69.6585 17.4146H72.1464V19.9024H69.6585V17.4146ZM84.5854 17.4146H87.0732V19.9024H84.5854V17.4146ZM14.9268 19.9024H17.4146V22.3902H14.9268V19.9024ZM19.9024 19.9024H22.3902V22.3902H19.9024V19.9024ZM22.3902 19.9024H24.8781V22.3902H22.3902V19.9024ZM24.8781 19.9024H27.3659V22.3902H24.8781V19.9024ZM29.8537 19.9024H32.3415V22.3902H29.8537V19.9024ZM37.3171 19.9024H39.8049V22.3902H37.3171V19.9024ZM39.8049 19.9024H42.2927V22.3902H39.8049V19.9024ZM42.2927 19.9024H44.7805V22.3902H42.2927V19.9024ZM49.7561 19.9024H52.2439V22.3902H49.7561V19.9024ZM54.7317 19.9024H57.2195V22.3902H54.7317V19.9024ZM62.1951 19.9024H64.6829V22.3902H62.1951V19.9024ZM64.6829 19.9024H67.1707V22.3902H64.6829V19.9024ZM69.6585 19.9024H72.1464V22.3902H69.6585V19.9024ZM74.6342 19.9024H77.122V22.3902H74.6342V19.9024ZM77.122 19.9024H79.6098V22.3902H77.122V19.9024ZM79.6098 19.9024H82.0976V22.3902H79.6098V19.9024ZM84.5854 19.9024H87.0732V22.3902H84.5854V19.9024ZM14.9268 22.3902H17.4146V24.8781H14.9268V22.3902ZM19.9024 22.3902H22.3902V24.8781H19.9024V22.3902ZM22.3902 22.3902H24.8781V24.8781H22.3902V22.3902ZM24.8781 22.3902H27.3659V24.8781H24.8781V22.3902ZM29.8537 22.3902H32.3415V24.8781H29.8537V22.3902ZM34.8293 22.3902H37.3171V24.8781H34.8293V22.3902ZM37.3171 22.3902H39.8049V24.8781H37.3171V22.3902ZM42.2927 22.3902H44.7805V24.8781H42.2927V22.3902ZM54.7317 22.3902H57.2195V24.8781H54.7317V22.3902ZM57.2195 22.3902H59.7073V24.8781H57.2195V22.3902ZM59.7073 22.3902H62.1951V24.8781H59.7073V22.3902ZM69.6585 22.3902H72.1464V24.8781H69.6585V22.3902ZM74.6342 22.3902H77.122V24.8781H74.6342V22.3902ZM77.122 22.3902H79.6098V24.8781H77.122V22.3902ZM79.6098 22.3902H82.0976V24.8781H79.6098V22.3902ZM84.5854 22.3902H87.0732V24.8781H84.5854V22.3902ZM14.9268 24.8781H17.4146V27.3659H14.9268V24.8781ZM19.9024 24.8781H22.3902V27.3659H19.9024V24.8781ZM22.3902 24.8781H24.8781V27.3659H22.3902V24.8781ZM24.8781 24.8781H27.3659V27.3659H24.8781V24.8781ZM29.8537 24.8781H32.3415V27.3659H29.8537V24.8781ZM39.8049 24.8781H42.2927V27.3659H39.8049V24.8781ZM44.7805 24.8781H47.2683V27.3659H44.7805V24.8781ZM47.2683 24.8781H49.7561V27.3659H47.2683V24.8781ZM49.7561 24.8781H52.2439V27.3659H49.7561V24.8781ZM52.2439 24.8781H54.7317V27.3659H52.2439V24.8781ZM57.2195 24.8781H59.7073V27.3659H57.2195V24.8781ZM59.7073 24.8781H62.1951V27.3659H59.7073V24.8781ZM62.1951 24.8781H64.6829V27.3659H62.1951V24.8781ZM64.6829 24.8781H67.1707V27.3659H64.6829V24.8781ZM69.6585 24.8781H72.1464V27.3659H69.6585V24.8781ZM74.6342 24.8781H77.122V27.3659H74.6342V24.8781ZM77.122 24.8781H79.6098V27.3659H77.122V24.8781ZM79.6098 24.8781H82.0976V27.3659H79.6098V24.8781ZM84.5854 24.8781H87.0732V27.3659H84.5854V24.8781ZM14.9268 27.3659H17.4146V29.8537H14.9268V27.3659ZM29.8537 27.3659H32.3415V29.8537H29.8537V27.3659ZM34.8293 27.3659H37.3171V29.8537H34.8293V27.3659ZM39.8049 27.3659H42.2927V29.8537H39.8049V27.3659ZM47.2683 27.3659H49.7561V29.8537H47.2683V27.3659ZM49.7561 27.3659H52.2439V29.8537H49.7561V27.3659ZM52.2439 27.3659H54.7317V29.8537H52.2439V27.3659ZM54.7317 27.3659H57.2195V29.8537H54.7317V27.3659ZM57.2195 27.3659H59.7073V29.8537H57.2195V27.3659ZM64.6829 27.3659H67.1707V29.8537H64.6829V27.3659ZM69.6585 27.3659H72.1464V29.8537H69.6585V27.3659ZM84.5854 27.3659H87.0732V29.8537H84.5854V27.3659ZM14.9268 29.8537H17.4146V32.3415H14.9268V29.8537ZM17.4146 29.8537H19.9024V32.3415H17.4146V29.8537ZM19.9024 29.8537H22.3902V32.3415H19.9024V29.8537ZM22.3902 29.8537H24.8781V32.3415H22.3902V29.8537ZM24.8781 29.8537H27.3659V32.3415H24.8781V29.8537ZM27.3659 29.8537H29.8537V32.3415H27.3659V29.8537ZM29.8537 29.8537H32.3415V32.3415H29.8537V29.8537ZM34.8293 29.8537H37.3171V32.3415H34.8293V29.8537ZM39.8049 29.8537H42.2927V32.3415H39.8049V29.8537ZM44.7805 29.8537H47.2683V32.3415H44.7805V29.8537ZM49.7561 29.8537H52.2439V32.3415H49.7561V29.8537ZM54.7317 29.8537H57.2195V32.3415H54.7317V29.8537ZM59.7073 29.8537H62.1951V32.3415H59.7073V29.8537ZM64.6829 29.8537H67.1707V32.3415H64.6829V29.8537ZM69.6585 29.8537H72.1464V32.3415H69.6585V29.8537ZM72.1464 29.8537H74.6342V32.3415H72.1464V29.8537ZM74.6342 29.8537H77.122V32.3415H74.6342V29.8537ZM77.122 29.8537H79.6098V32.3415H77.122V29.8537ZM79.6098 29.8537H82.0976V32.3415H79.6098V29.8537ZM82.0976 29.8537H84.5854V32.3415H82.0976V29.8537ZM84.5854 29.8537H87.0732V32.3415H84.5854V29.8537ZM44.7805 32.3415H47.2683V34.8293H44.7805V32.3415ZM47.2683 32.3415H49.7561V34.8293H47.2683V32.3415ZM52.2439 32.3415H54.7317V34.8293H52.2439V32.3415ZM59.7073 32.3415H62.1951V34.8293H59.7073V32.3415ZM14.9268 34.8293H17.4146V37.3171H14.9268V34.8293ZM17.4146 34.8293H19.9024V37.3171H17.4146V34.8293ZM19.9024 34.8293H22.3902V37.3171H19.9024V34.8293ZM22.3902 34.8293H24.8781V37.3171H22.3902V34.8293ZM24.8781 34.8293H27.3659V37.3171H24.8781V34.8293ZM29.8537 34.8293H32.3415V37.3171H29.8537V34.8293ZM32.3415 34.8293H34.8293V37.3171H32.3415V34.8293ZM34.8293 34.8293H37.3171V37.3171H34.8293V34.8293ZM37.3171 34.8293H39.8049V37.3171H37.3171V34.8293ZM39.8049 34.8293H42.2927V37.3171H39.8049V34.8293ZM44.7805 34.8293H47.2683V37.3171H44.7805V34.8293ZM49.7561 34.8293H52.2439V37.3171H49.7561V34.8293ZM52.2439 34.8293H54.7317V37.3171H52.2439V34.8293ZM57.2195 34.8293H59.7073V37.3171H57.2195V34.8293ZM67.1707 34.8293H69.6585V37.3171H67.1707V34.8293ZM72.1464 34.8293H74.6342V37.3171H72.1464V34.8293ZM77.122 34.8293H79.6098V37.3171H77.122V34.8293ZM82.0976 34.8293H84.5854V37.3171H82.0976V34.8293ZM14.9268 37.3171H17.4146V39.8049H14.9268V37.3171ZM19.9024 37.3171H22.3902V39.8049H19.9024V37.3171ZM32.3415 37.3171H34.8293V39.8049H32.3415V37.3171ZM37.3171 37.3171H39.8049V39.8049H37.3171V37.3171ZM52.2439 37.3171H54.7317V39.8049H52.2439V37.3171ZM54.7317 37.3171H57.2195V39.8049H54.7317V37.3171ZM57.2195 37.3171H59.7073V39.8049H57.2195V37.3171ZM59.7073 37.3171H62.1951V39.8049H59.7073V37.3171ZM62.1951 37.3171H64.6829V39.8049H62.1951V37.3171ZM64.6829 37.3171H67.1707V39.8049H64.6829V37.3171ZM67.1707 37.3171H69.6585V39.8049H67.1707V37.3171ZM69.6585 37.3171H72.1464V39.8049H69.6585V37.3171ZM72.1464 37.3171H74.6342V39.8049H72.1464V37.3171ZM74.6342 37.3171H77.122V39.8049H74.6342V37.3171ZM84.5854 37.3171H87.0732V39.8049H84.5854V37.3171ZM14.9268 39.8049H17.4146V42.2927H14.9268V39.8049ZM17.4146 39.8049H19.9024V42.2927H17.4146V39.8049ZM19.9024 39.8049H22.3902V42.2927H19.9024V39.8049ZM29.8537 39.8049H32.3415V42.2927H29.8537V39.8049ZM32.3415 39.8049H34.8293V42.2927H32.3415V39.8049ZM34.8293 39.8049H37.3171V42.2927H34.8293V39.8049ZM37.3171 39.8049H39.8049V42.2927H37.3171V39.8049ZM42.2927 39.8049H44.7805V42.2927H42.2927V39.8049ZM44.7805 39.8049H47.2683V42.2927H44.7805V39.8049ZM67.1707 39.8049H69.6585V42.2927H67.1707V39.8049ZM72.1464 39.8049H74.6342V42.2927H72.1464V39.8049ZM74.6342 39.8049H77.122V42.2927H74.6342V39.8049ZM14.9268 42.2927H17.4146V44.7805H14.9268V42.2927ZM17.4146 42.2927H19.9024V44.7805H17.4146V42.2927ZM22.3902 42.2927H24.8781V44.7805H22.3902V42.2927ZM32.3415 42.2927H34.8293V44.7805H32.3415V42.2927ZM37.3171 42.2927H39.8049V44.7805H37.3171V42.2927ZM39.8049 42.2927H42.2927V44.7805H39.8049V42.2927ZM42.2927 42.2927H44.7805V44.7805H42.2927V42.2927ZM49.7561 42.2927H52.2439V44.7805H49.7561V42.2927ZM54.7317 42.2927H57.2195V44.7805H54.7317V42.2927ZM59.7073 42.2927H62.1951V44.7805H59.7073V42.2927ZM67.1707 42.2927H69.6585V44.7805H67.1707V42.2927ZM69.6585 42.2927H72.1464V44.7805H69.6585V42.2927ZM77.122 42.2927H79.6098V44.7805H77.122V42.2927ZM82.0976 42.2927H84.5854V44.7805H82.0976V42.2927ZM14.9268 44.7805H17.4146V47.2683H14.9268V44.7805ZM17.4146 44.7805H19.9024V47.2683H17.4146V44.7805ZM22.3902 44.7805H24.8781V47.2683H22.3902V44.7805ZM29.8537 44.7805H32.3415V47.2683H29.8537V44.7805ZM34.8293 44.7805H37.3171V47.2683H34.8293V44.7805ZM37.3171 44.7805H39.8049V47.2683H37.3171V44.7805ZM42.2927 44.7805H44.7805V47.2683H42.2927V44.7805ZM57.2195 44.7805H59.7073V47.2683H57.2195V44.7805ZM64.6829 44.7805H67.1707V47.2683H64.6829V44.7805ZM77.122 44.7805H79.6098V47.2683H77.122V44.7805ZM79.6098 44.7805H82.0976V47.2683H79.6098V44.7805ZM14.9268 47.2683H17.4146V49.7561H14.9268V47.2683ZM17.4146 47.2683H19.9024V49.7561H17.4146V47.2683ZM19.9024 47.2683H22.3902V49.7561H19.9024V47.2683ZM34.8293 47.2683H37.3171V49.7561H34.8293V47.2683ZM37.3171 47.2683H39.8049V49.7561H37.3171V47.2683ZM39.8049 47.2683H42.2927V49.7561H39.8049V47.2683ZM44.7805 47.2683H47.2683V49.7561H44.7805V47.2683ZM47.2683 47.2683H49.7561V49.7561H47.2683V47.2683ZM49.7561 47.2683H52.2439V49.7561H49.7561V47.2683ZM52.2439 47.2683H54.7317V49.7561H52.2439V47.2683ZM57.2195 47.2683H59.7073V49.7561H57.2195V47.2683ZM59.7073 47.2683H62.1951V49.7561H59.7073V47.2683ZM62.1951 47.2683H64.6829V49.7561H62.1951V47.2683ZM64.6829 47.2683H67.1707V49.7561H64.6829V47.2683ZM67.1707 47.2683H69.6585V49.7561H67.1707V47.2683ZM69.6585 47.2683H72.1464V49.7561H69.6585V47.2683ZM72.1464 47.2683H74.6342V49.7561H72.1464V47.2683ZM74.6342 47.2683H77.122V49.7561H74.6342V47.2683ZM84.5854 47.2683H87.0732V49.7561H84.5854V47.2683ZM19.9024 49.7561H22.3902V52.2439H19.9024V49.7561ZM24.8781 49.7561H27.3659V52.2439H24.8781V49.7561ZM29.8537 49.7561H32.3415V52.2439H29.8537V49.7561ZM34.8293 49.7561H37.3171V52.2439H34.8293V49.7561ZM37.3171 49.7561H39.8049V52.2439H37.3171V49.7561ZM39.8049 49.7561H42.2927V52.2439H39.8049V49.7561ZM47.2683 49.7561H49.7561V52.2439H47.2683V49.7561ZM49.7561 49.7561H52.2439V52.2439H49.7561V49.7561ZM52.2439 49.7561H54.7317V52.2439H52.2439V49.7561ZM54.7317 49.7561H57.2195V52.2439H54.7317V49.7561ZM59.7073 49.7561H62.1951V52.2439H59.7073V49.7561ZM69.6585 49.7561H72.1464V52.2439H69.6585V49.7561ZM77.122 49.7561H79.6098V52.2439H77.122V49.7561ZM79.6098 49.7561H82.0976V52.2439H79.6098V49.7561ZM17.4146 52.2439H19.9024V54.7317H17.4146V52.2439ZM19.9024 52.2439H22.3902V54.7317H19.9024V52.2439ZM24.8781 52.2439H27.3659V54.7317H24.8781V52.2439ZM27.3659 52.2439H29.8537V54.7317H27.3659V52.2439ZM37.3171 52.2439H39.8049V54.7317H37.3171V52.2439ZM44.7805 52.2439H47.2683V54.7317H44.7805V52.2439ZM47.2683 52.2439H49.7561V54.7317H47.2683V52.2439ZM52.2439 52.2439H54.7317V54.7317H52.2439V52.2439ZM54.7317 52.2439H57.2195V54.7317H54.7317V52.2439ZM62.1951 52.2439H64.6829V54.7317H62.1951V52.2439ZM64.6829 52.2439H67.1707V54.7317H64.6829V52.2439ZM67.1707 52.2439H69.6585V54.7317H67.1707V52.2439ZM74.6342 52.2439H77.122V54.7317H74.6342V52.2439ZM82.0976 52.2439H84.5854V54.7317H82.0976V52.2439ZM14.9268 54.7317H17.4146V57.2195H14.9268V54.7317ZM17.4146 54.7317H19.9024V57.2195H17.4146V54.7317ZM19.9024 54.7317H22.3902V57.2195H19.9024V54.7317ZM22.3902 54.7317H24.8781V57.2195H22.3902V54.7317ZM27.3659 54.7317H29.8537V57.2195H27.3659V54.7317ZM29.8537 54.7317H32.3415V57.2195H29.8537V54.7317ZM39.8049 54.7317H42.2927V57.2195H39.8049V54.7317ZM44.7805 54.7317H47.2683V57.2195H44.7805V54.7317ZM49.7561 54.7317H52.2439V57.2195H49.7561V54.7317ZM52.2439 54.7317H54.7317V57.2195H52.2439V54.7317ZM54.7317 54.7317H57.2195V57.2195H54.7317V54.7317ZM57.2195 54.7317H59.7073V57.2195H57.2195V54.7317ZM62.1951 54.7317H64.6829V57.2195H62.1951V54.7317ZM72.1464 54.7317H74.6342V57.2195H72.1464V54.7317ZM77.122 54.7317H79.6098V57.2195H77.122V54.7317ZM79.6098 54.7317H82.0976V57.2195H79.6098V54.7317ZM14.9268 57.2195H17.4146V59.7073H14.9268V57.2195ZM17.4146 57.2195H19.9024V59.7073H17.4146V57.2195ZM19.9024 57.2195H22.3902V59.7073H19.9024V57.2195ZM22.3902 57.2195H24.8781V59.7073H22.3902V57.2195ZM24.8781 57.2195H27.3659V59.7073H24.8781V57.2195ZM27.3659 57.2195H29.8537V59.7073H27.3659V57.2195ZM32.3415 57.2195H34.8293V59.7073H32.3415V57.2195ZM39.8049 57.2195H42.2927V59.7073H39.8049V57.2195ZM57.2195 57.2195H59.7073V59.7073H57.2195V57.2195ZM59.7073 57.2195H62.1951V59.7073H59.7073V57.2195ZM62.1951 57.2195H64.6829V59.7073H62.1951V57.2195ZM67.1707 57.2195H69.6585V59.7073H67.1707V57.2195ZM69.6585 57.2195H72.1464V59.7073H69.6585V57.2195ZM72.1464 57.2195H74.6342V59.7073H72.1464V57.2195ZM74.6342 57.2195H77.122V59.7073H74.6342V57.2195ZM79.6098 57.2195H82.0976V59.7073H79.6098V57.2195ZM84.5854 57.2195H87.0732V59.7073H84.5854V57.2195ZM14.9268 59.7073H17.4146V62.1951H14.9268V59.7073ZM22.3902 59.7073H24.8781V62.1951H22.3902V59.7073ZM27.3659 59.7073H29.8537V62.1951H27.3659V59.7073ZM29.8537 59.7073H32.3415V62.1951H29.8537V59.7073ZM39.8049 59.7073H42.2927V62.1951H39.8049V59.7073ZM42.2927 59.7073H44.7805V62.1951H42.2927V59.7073ZM44.7805 59.7073H47.2683V62.1951H44.7805V59.7073ZM52.2439 59.7073H54.7317V62.1951H52.2439V59.7073ZM57.2195 59.7073H59.7073V62.1951H57.2195V59.7073ZM72.1464 59.7073H74.6342V62.1951H72.1464V59.7073ZM74.6342 59.7073H77.122V62.1951H74.6342V59.7073ZM79.6098 59.7073H82.0976V62.1951H79.6098V59.7073ZM14.9268 62.1951H17.4146V64.6829H14.9268V62.1951ZM19.9024 62.1951H22.3902V64.6829H19.9024V62.1951ZM22.3902 62.1951H24.8781V64.6829H22.3902V62.1951ZM24.8781 62.1951H27.3659V64.6829H24.8781V62.1951ZM27.3659 62.1951H29.8537V64.6829H27.3659V62.1951ZM32.3415 62.1951H34.8293V64.6829H32.3415V62.1951ZM37.3171 62.1951H39.8049V64.6829H37.3171V62.1951ZM39.8049 62.1951H42.2927V64.6829H39.8049V62.1951ZM42.2927 62.1951H44.7805V64.6829H42.2927V62.1951ZM49.7561 62.1951H52.2439V64.6829H49.7561V62.1951ZM52.2439 62.1951H54.7317V64.6829H52.2439V62.1951ZM54.7317 62.1951H57.2195V64.6829H54.7317V62.1951ZM59.7073 62.1951H62.1951V64.6829H59.7073V62.1951ZM74.6342 62.1951H77.122V64.6829H74.6342V62.1951ZM82.0976 62.1951H84.5854V64.6829H82.0976V62.1951ZM14.9268 64.6829H17.4146V67.1707H14.9268V64.6829ZM19.9024 64.6829H22.3902V67.1707H19.9024V64.6829ZM22.3902 64.6829H24.8781V67.1707H22.3902V64.6829ZM27.3659 64.6829H29.8537V67.1707H27.3659V64.6829ZM29.8537 64.6829H32.3415V67.1707H29.8537V64.6829ZM37.3171 64.6829H39.8049V67.1707H37.3171V64.6829ZM39.8049 64.6829H42.2927V67.1707H39.8049V64.6829ZM42.2927 64.6829H44.7805V67.1707H42.2927V64.6829ZM52.2439 64.6829H54.7317V67.1707H52.2439V64.6829ZM54.7317 64.6829H57.2195V67.1707H54.7317V64.6829ZM57.2195 64.6829H59.7073V67.1707H57.2195V64.6829ZM64.6829 64.6829H67.1707V67.1707H64.6829V64.6829ZM67.1707 64.6829H69.6585V67.1707H67.1707V64.6829ZM69.6585 64.6829H72.1464V67.1707H69.6585V64.6829ZM72.1464 64.6829H74.6342V67.1707H72.1464V64.6829ZM74.6342 64.6829H77.122V67.1707H74.6342V64.6829ZM79.6098 64.6829H82.0976V67.1707H79.6098V64.6829ZM82.0976 64.6829H84.5854V67.1707H82.0976V64.6829ZM84.5854 64.6829H87.0732V67.1707H84.5854V64.6829ZM34.8293 67.1707H37.3171V69.6585H34.8293V67.1707ZM39.8049 67.1707H42.2927V69.6585H39.8049V67.1707ZM44.7805 67.1707H47.2683V69.6585H44.7805V67.1707ZM47.2683 67.1707H49.7561V69.6585H47.2683V67.1707ZM49.7561 67.1707H52.2439V69.6585H49.7561V67.1707ZM54.7317 67.1707H57.2195V69.6585H54.7317V67.1707ZM57.2195 67.1707H59.7073V69.6585H57.2195V67.1707ZM59.7073 67.1707H62.1951V69.6585H59.7073V67.1707ZM62.1951 67.1707H64.6829V69.6585H62.1951V67.1707ZM64.6829 67.1707H67.1707V69.6585H64.6829V67.1707ZM74.6342 67.1707H77.122V69.6585H74.6342V67.1707ZM77.122 67.1707H79.6098V69.6585H77.122V67.1707ZM79.6098 67.1707H82.0976V69.6585H79.6098V67.1707ZM82.0976 67.1707H84.5854V69.6585H82.0976V67.1707ZM84.5854 67.1707H87.0732V69.6585H84.5854V67.1707ZM14.9268 69.6585H17.4146V72.1464H14.9268V69.6585ZM17.4146 69.6585H19.9024V72.1464H17.4146V69.6585ZM19.9024 69.6585H22.3902V72.1464H19.9024V69.6585ZM22.3902 69.6585H24.8781V72.1464H22.3902V69.6585ZM24.8781 69.6585H27.3659V72.1464H24.8781V69.6585ZM27.3659 69.6585H29.8537V72.1464H27.3659V69.6585ZM29.8537 69.6585H32.3415V72.1464H29.8537V69.6585ZM34.8293 69.6585H37.3171V72.1464H34.8293V69.6585ZM47.2683 69.6585H49.7561V72.1464H47.2683V69.6585ZM49.7561 69.6585H52.2439V72.1464H49.7561V69.6585ZM52.2439 69.6585H54.7317V72.1464H52.2439V69.6585ZM54.7317 69.6585H57.2195V72.1464H54.7317V69.6585ZM57.2195 69.6585H59.7073V72.1464H57.2195V69.6585ZM59.7073 69.6585H62.1951V72.1464H59.7073V69.6585ZM62.1951 69.6585H64.6829V72.1464H62.1951V69.6585ZM64.6829 69.6585H67.1707V72.1464H64.6829V69.6585ZM69.6585 69.6585H72.1464V72.1464H69.6585V69.6585ZM74.6342 69.6585H77.122V72.1464H74.6342V69.6585ZM77.122 69.6585H79.6098V72.1464H77.122V69.6585ZM79.6098 69.6585H82.0976V72.1464H79.6098V69.6585ZM14.9268 72.1464H17.4146V74.6342H14.9268V72.1464ZM29.8537 72.1464H32.3415V74.6342H29.8537V72.1464ZM37.3171 72.1464H39.8049V74.6342H37.3171V72.1464ZM44.7805 72.1464H47.2683V74.6342H44.7805V72.1464ZM47.2683 72.1464H49.7561V74.6342H47.2683V72.1464ZM52.2439 72.1464H54.7317V74.6342H52.2439V72.1464ZM62.1951 72.1464H64.6829V74.6342H62.1951V72.1464ZM64.6829 72.1464H67.1707V74.6342H64.6829V72.1464ZM74.6342 72.1464H77.122V74.6342H74.6342V72.1464ZM14.9268 74.6342H17.4146V77.122H14.9268V74.6342ZM19.9024 74.6342H22.3902V77.122H19.9024V74.6342ZM22.3902 74.6342H24.8781V77.122H22.3902V74.6342ZM24.8781 74.6342H27.3659V77.122H24.8781V74.6342ZM29.8537 74.6342H32.3415V77.122H29.8537V74.6342ZM34.8293 74.6342H37.3171V77.122H34.8293V74.6342ZM37.3171 74.6342H39.8049V77.122H37.3171V74.6342ZM39.8049 74.6342H42.2927V77.122H39.8049V74.6342ZM44.7805 74.6342H47.2683V77.122H44.7805V74.6342ZM49.7561 74.6342H52.2439V77.122H49.7561V74.6342ZM57.2195 74.6342H59.7073V77.122H57.2195V74.6342ZM59.7073 74.6342H62.1951V77.122H59.7073V74.6342ZM64.6829 74.6342H67.1707V77.122H64.6829V74.6342ZM67.1707 74.6342H69.6585V77.122H67.1707V74.6342ZM69.6585 74.6342H72.1464V77.122H69.6585V74.6342ZM72.1464 74.6342H74.6342V77.122H72.1464V74.6342ZM74.6342 74.6342H77.122V77.122H74.6342V74.6342ZM79.6098 74.6342H82.0976V77.122H79.6098V74.6342ZM82.0976 74.6342H84.5854V77.122H82.0976V74.6342ZM14.9268 77.122H17.4146V79.6098H14.9268V77.122ZM19.9024 77.122H22.3902V79.6098H19.9024V77.122ZM22.3902 77.122H24.8781V79.6098H22.3902V77.122ZM24.8781 77.122H27.3659V79.6098H24.8781V77.122ZM29.8537 77.122H32.3415V79.6098H29.8537V77.122ZM34.8293 77.122H37.3171V79.6098H34.8293V77.122ZM54.7317 77.122H57.2195V79.6098H54.7317V77.122ZM57.2195 77.122H59.7073V79.6098H57.2195V77.122ZM59.7073 77.122H62.1951V79.6098H59.7073V77.122ZM77.122 77.122H79.6098V79.6098H77.122V77.122ZM79.6098 77.122H82.0976V79.6098H79.6098V77.122ZM82.0976 77.122H84.5854V79.6098H82.0976V77.122ZM84.5854 77.122H87.0732V79.6098H84.5854V77.122ZM14.9268 79.6098H17.4146V82.0976H14.9268V79.6098ZM19.9024 79.6098H22.3902V82.0976H19.9024V79.6098ZM22.3902 79.6098H24.8781V82.0976H22.3902V79.6098ZM24.8781 79.6098H27.3659V82.0976H24.8781V79.6098ZM29.8537 79.6098H32.3415V82.0976H29.8537V79.6098ZM34.8293 79.6098H37.3171V82.0976H34.8293V79.6098ZM42.2927 79.6098H44.7805V82.0976H42.2927V79.6098ZM44.7805 79.6098H47.2683V82.0976H44.7805V79.6098ZM52.2439 79.6098H54.7317V82.0976H52.2439V79.6098ZM54.7317 79.6098H57.2195V82.0976H54.7317V79.6098ZM57.2195 79.6098H59.7073V82.0976H57.2195V79.6098ZM67.1707 79.6098H69.6585V82.0976H67.1707V79.6098ZM69.6585 79.6098H72.1464V82.0976H69.6585V79.6098ZM72.1464 79.6098H74.6342V82.0976H72.1464V79.6098ZM74.6342 79.6098H77.122V82.0976H74.6342V79.6098ZM77.122 79.6098H79.6098V82.0976H77.122V79.6098ZM79.6098 79.6098H82.0976V82.0976H79.6098V79.6098ZM82.0976 79.6098H84.5854V82.0976H82.0976V79.6098ZM14.9268 82.0976H17.4146V84.5854H14.9268V82.0976ZM29.8537 82.0976H32.3415V84.5854H29.8537V82.0976ZM34.8293 82.0976H37.3171V84.5854H34.8293V82.0976ZM37.3171 82.0976H39.8049V84.5854H37.3171V82.0976ZM42.2927 82.0976H44.7805V84.5854H42.2927V82.0976ZM49.7561 82.0976H52.2439V84.5854H49.7561V82.0976ZM52.2439 82.0976H54.7317V84.5854H52.2439V82.0976ZM54.7317 82.0976H57.2195V84.5854H54.7317V82.0976ZM62.1951 82.0976H64.6829V84.5854H62.1951V82.0976ZM64.6829 82.0976H67.1707V84.5854H64.6829V82.0976ZM67.1707 82.0976H69.6585V84.5854H67.1707V82.0976ZM77.122 82.0976H79.6098V84.5854H77.122V82.0976ZM82.0976 82.0976H84.5854V84.5854H82.0976V82.0976ZM14.9268 84.5854H17.4146V87.0732H14.9268V84.5854ZM17.4146 84.5854H19.9024V87.0732H17.4146V84.5854ZM19.9024 84.5854H22.3902V87.0732H19.9024V84.5854ZM22.3902 84.5854H24.8781V87.0732H22.3902V84.5854ZM24.8781 84.5854H27.3659V87.0732H24.8781V84.5854ZM27.3659 84.5854H29.8537V87.0732H27.3659V84.5854ZM29.8537 84.5854H32.3415V87.0732H29.8537V84.5854ZM34.8293 84.5854H37.3171V87.0732H34.8293V84.5854ZM42.2927 84.5854H44.7805V87.0732H42.2927V84.5854ZM52.2439 84.5854H54.7317V87.0732H52.2439V84.5854ZM62.1951 84.5854H64.6829V87.0732H62.1951V84.5854ZM74.6342 84.5854H77.122V87.0732H74.6342V84.5854ZM77.122 84.5854H79.6098V87.0732H77.122V84.5854ZM79.6098 84.5854H82.0976V87.0732H79.6098V84.5854Z" fill="black"/>
</svg>
